<?xml version="1.0" encoding="UTF-8"?>
<svg width="552px" height="208px" viewBox="0 0 552 208" version="1.1" xmlns="http://www.w3.org/2000/svg" xmlns:xlink="http://www.w3.org/1999/xlink">
    <title>Group 2</title>
    <g id="Page-1" stroke="none" stroke-width="1" fill="none" fill-rule="evenodd">
        <g id="Group-2" transform="translate(0.036184, 0.067585)" fill="#FFFFFF" fill-rule="nonzero">
            <path d="M33.363816,202.771262 C33.063816,201.971262 25.663816,156.571262 16.763816,101.871262 C7.86381599,47.1712615 0.463815985,1.67126151 0.163815985,0.871261512 C-0.136184015,-0.128738488 -0.0361840145,-0.228738488 0.563815985,0.371261512 C1.16381599,0.971261512 12.263816,40.2712615 25.363816,87.8712615 C38.463816,135.471262 49.263816,174.471262 49.363816,174.671262 C49.463816,174.871262 96.663816,160.771262 154.263816,143.371262 C211.863816,125.971262 259.363816,111.871262 259.765099,112.071262 C260.363816,112.271262 50.363816,197.771262 35.563816,203.471262 C34.463816,203.771262 33.563816,203.571262 33.363816,202.771262 Z" id="Path" transform="translate(129.882550, 101.801838) scale(-1, 1) rotate(-180.000000) translate(-129.882550, -101.801838) "></path>
            <path d="M28.963816,122.633666 C16.163816,76.733666 5.86381599,39.033666 5.96309395,38.9324147 C6.16381599,38.733666 21.563816,62.533666 40.263816,91.633666 C58.963816,120.733666 75.063816,145.033666 76.063816,145.533666 C77.263816,146.233666 110.263816,146.433666 171.863816,146.233666 C223.463816,146.033666 265.463816,146.033666 265.063816,146.133666 C264.563816,146.333666 217.663816,159.433666 160.763816,175.433666 C103.863816,191.433666 56.063816,204.833666 54.663816,205.333666 L52.163816,206.233666 L28.963816,122.633666 Z" id="Path" transform="translate(135.514872, 122.583040) scale(-1, 1) rotate(-180.000000) translate(-135.514872, -122.583040) "></path>
            <path d="M308.963816,194.7467 C303.263816,194.3467 298.563816,193.9467 298.363816,193.7467 C297.363816,192.2467 290.663816,169.2467 289.963816,164.5467 C288.863816,157.7467 289.363816,154.3467 291.863816,150.7467 C294.263816,147.2467 299.363816,146.0467 315.263816,145.3467 C325.663816,144.8467 328.463816,144.4467 329.563816,143.1467 C331.263816,140.8467 331.063816,137.0467 328.863816,132.2467 C325.763816,125.5467 324.063816,124.8467 310.163816,124.8467 C296.163816,124.8467 295.363816,125.2467 295.963816,132.3467 L296.263816,136.8467 L288.063816,136.8467 C283.563816,136.8467 279.563816,136.4467 279.263816,135.8467 C278.963816,135.3467 278.363816,131.8467 278.063816,128.1467 C277.663816,122.1467 277.863816,120.9467 279.963816,117.8467 C281.263816,115.9467 284.363816,113.2467 286.763816,111.9467 C290.863816,109.6467 292.063816,109.5467 307.663816,109.4467 C326.963816,109.4467 330.363816,110.4467 337.463816,118.0467 C342.563816,123.6467 345.263816,128.9467 347.363816,136.9467 C349.463816,144.9467 348.563816,150.8467 344.763816,155.2467 C340.963816,159.5467 336.163816,160.8467 323.163816,160.9467 C317.163816,161.0467 311.163816,161.3467 309.763816,161.7467 C306.463816,162.6467 306.063816,166.4467 308.363816,174.1467 L310.063816,179.9467 L322.963816,179.7467 C334.563816,179.6467 335.963816,179.4467 337.163816,177.6467 C338.063816,176.3467 338.363816,174.3467 338.063816,172.2467 L337.463816,168.8467 L345.563816,168.8467 C354.463816,168.8467 354.263816,168.6467 355.363816,176.7467 C356.663816,186.6467 351.563816,193.4467 342.163816,194.4467 C333.963816,195.2467 319.763816,195.3467 308.963816,194.7467 Z" id="Path" transform="translate(316.730232, 152.289558) scale(-1, 1) rotate(-180.000000) translate(-316.730232, -152.289558) "></path>
            <path d="M76.663816,110.432415 C80.363816,109.432415 121.163816,109.832415 125.363816,110.832415 C127.863816,111.532415 131.363816,113.432415 133.263816,115.132415 C139.763816,121.332415 138.863816,131.732415 128.663816,162.932415 C124.763816,174.932415 120.963816,182.332415 116.563816,186.532415 C109.563816,193.032415 98.163816,195.932415 82.763816,195.132415 C65.663816,194.232415 56.663816,185.732415 58.363816,172.232415 C60.063816,159.732415 74.463816,111.032415 76.663816,110.432415 Z M117.063816,126.432415 C115.263816,124.832415 101.763816,123.832415 92.163816,124.532415 L92.163816,124.532415 L88.063816,124.832415 L82.863816,143.032415 C74.863816,171.332415 74.363816,174.332415 77.663816,177.632415 C79.463816,179.432415 80.963816,179.732415 89.663816,179.732415 C95.363816,179.732415 99.963816,179.332415 100.263816,178.732415 C100.663816,178.132415 101.263816,177.932415 101.763816,178.232415 C102.863816,178.932415 108.563816,172.232415 109.863816,168.832415 C110.463816,167.432415 112.663816,160.032415 114.863816,152.332415 C119.163816,136.932415 119.863816,129.032415 117.063816,126.432415 Z" id="Combined-Shape"></path>
            <path d="M256.563816,194.229904 L227.863816,193.929904 L226.863816,190.629904 C224.063816,180.829904 207.663816,123.329904 205.963816,117.229904 L203.963816,109.929904 L212.163816,109.929904 L220.463816,109.929904 L225.163816,126.129904 C227.763816,135.029904 229.963816,142.429904 230.063816,142.629904 C230.163816,142.729904 238.663816,143.129904 248.763816,143.429904 C258.963816,143.829904 267.563816,144.429904 267.963816,144.729904 C268.663816,145.429904 271.763816,155.629904 271.763816,157.229904 C271.763816,157.629904 264.763816,157.929904 256.063816,157.729904 C241.563816,157.429904 239.963816,157.229904 237.063816,155.129904 L233.863816,152.929904 L234.363816,156.129904 C234.563816,157.929904 236.063816,163.929904 237.563816,169.429904 L240.363816,179.429904 L260.263816,179.729904 C271.263816,179.829904 280.563816,180.329904 280.963816,180.729904 C281.463816,181.229904 282.663816,184.529904 283.663816,188.229904 C284.763816,191.929904 285.563816,194.829904 285.463816,194.729904 C285.363816,194.529904 272.363816,194.329904 256.563816,194.229904 Z" id="Path" transform="translate(244.718036, 152.331160) scale(-1, 1) rotate(-180.000000) translate(-244.718036, -152.331160) "></path>
            <path d="M377.863816,191.415257 C373.163816,176.115257 354.763816,111.515257 354.763816,110.015257 C354.763816,109.815257 358.463816,109.615257 362.863816,109.815257 L371.063816,110.115257 L379.363816,139.115257 C390.563816,177.815257 394.663816,193.315257 393.963816,194.015257 C393.663816,194.315257 390.163816,194.615257 386.163816,194.615257 L378.963816,194.615257 L377.863816,191.415257 Z" id="Path" transform="translate(374.401663, 152.173836) scale(-1, 1) rotate(-180.000000) translate(-374.401663, -152.173836) "></path>
            <path d="M157.363816,193.032415 C151.063816,171.432415 135.763816,117.232415 135.263816,114.532415 L134.563816,110.732415 L142.563816,110.732415 L150.663816,110.732415 L152.663816,117.532415 C153.763816,121.232415 155.863816,128.532415 157.463816,133.832415 L160.163816,143.432415 L172.163816,144.132415 C178.663816,144.432415 187.263816,144.732415 191.163816,144.732415 L198.363816,144.732415 L200.063816,151.132415 C200.963816,154.632415 201.763816,157.832415 201.763816,158.232415 C201.763816,158.532415 194.563816,158.732415 185.863816,158.532415 C170.963816,158.232415 169.763816,158.132415 167.563816,156.032415 C162.763816,151.432415 162.663816,153.332415 167.063816,168.232415 C170.963816,181.432415 168.863816,180.432415 193.863816,180.632415 C211.263816,180.732415 211.563816,180.732415 212.163816,183.032415 C212.463816,184.232415 213.363816,187.332415 214.163816,190.032415 L215.663816,194.732415 L186.763816,194.732415 C160.163816,194.732415 157.863816,194.632415 157.363816,193.032415 Z" id="Path" transform="translate(175.113816, 152.732415) scale(-1, 1) rotate(-180.000000) translate(-175.113816, -152.732415) "></path>
            <path d="M437.811353,110.733402 C457.401066,110.747415 458.773816,110.937415 462.763816,112.932415 C469.563816,116.432415 471.163816,120.532415 470.463816,133.232415 C469.363816,155.332415 458.163816,181.532415 446.463816,189.432415 C439.663816,193.932415 434.363816,194.732415 409.163816,194.732415 C388.163816,194.732415 386.663816,194.632415 387.163816,192.932415 C387.463816,192.032415 391.763816,176.832415 396.763816,159.232415 C401.763816,141.632415 406.963816,123.532415 408.363816,118.932415 L408.363816,118.932415 L410.863816,110.732415 Z M449.463816,125.832415 C446.763816,124.832415 435.663816,124.632415 427.463816,125.432415 C422.963816,125.932415 423.663816,124.332415 416.263816,150.432415 C407.363816,182.232415 406.863816,184.132415 407.263816,184.532415 C407.463816,184.732415 408.963816,183.832415 410.763816,182.632415 C413.363816,180.632415 415.463816,180.232415 424.563816,179.732415 C437.663816,179.032415 440.163816,177.632415 444.063816,168.932415 C447.963816,160.332415 453.763816,139.232415 453.763816,133.932415 C453.763816,128.332415 453.163816,127.232415 449.463816,125.832415 Z" id="Combined-Shape"></path>
            <path d="M487.963816,177.532415 C485.163816,168.032415 480.163816,150.332415 476.763816,138.232415 C473.363816,126.132415 470.263816,115.032415 469.763816,113.432415 L468.863816,110.732415 L498.063816,110.932415 L527.163816,111.232415 L529.063816,117.632415 C530.663816,122.932415 530.763816,124.132415 529.663816,124.832415 C528.863816,125.332415 519.863816,125.732415 509.563816,125.732415 C492.363816,125.732415 490.763816,125.832415 490.763816,127.532415 C490.863816,129.932415 495.563816,145.932415 496.563816,146.932415 C497.063816,147.432415 505.863816,147.732415 516.163816,147.532415 L534.863816,147.232415 L536.463816,152.732415 C537.363816,155.732415 538.263816,158.832415 538.563816,159.532415 C538.963816,160.632415 536.063816,160.832415 522.563816,160.532415 C509.063816,160.332415 505.663816,159.932415 503.463816,158.532415 C500.263816,156.332415 499.763816,156.332415 499.763816,158.332415 C499.763816,160.232415 504.563816,177.732415 505.663816,179.732415 C506.363816,180.932415 510.163816,181.332415 526.763816,181.732415 L547.063816,182.232415 L548.263816,185.732415 C548.963816,187.632415 549.763816,190.432415 550.163816,192.032415 L550.763816,194.732415 L521.963816,194.732415 L493.063816,194.732415 L487.963816,177.532415 Z" id="Path" transform="translate(509.813816, 152.732415) scale(-1, 1) rotate(-180.000000) translate(-509.813816, -152.732415) "></path>
        </g>
    </g>
</svg>